<?xml version="1.0" encoding="UTF-8"?>
<svg id="Layer_2" data-name="Layer 2" xmlns="http://www.w3.org/2000/svg" viewBox="0 0 295.36 295.35">
  <defs>
    <style>
      .cls-1 {
        fill: #343454;
      }
    </style>
  </defs>
  <g id="Layer_1-2" data-name="Layer 1">
    <g>
      <path class="cls-1" d="M147.68,0C66.25,0,0,66.24,0,147.68c0,46.69,21.78,88.39,55.71,115.45,3.97,3.19,8.11,6.16,12.41,8.91,22.97,14.75,50.28,23.31,79.56,23.31,2.08,0,4.14-.04,6.2-.13,7.78-.32,15.4-1.25,22.83-2.74,67.58-13.52,118.65-73.3,118.65-144.8C295.36,66.24,229.11,0,147.68,0ZM174.16,280.75c-8.57,1.71-17.42,2.6-26.48,2.6-14.56,0-28.59-2.3-41.74-6.56-12.88-4.18-24.91-10.22-35.79-17.82-4.03-2.82-7.9-5.85-11.6-9.08-28.51-24.89-46.55-61.48-46.55-102.21C12,72.86,72.86,12,147.68,12s135.68,60.86,135.68,135.68c0,65.75-47.02,120.73-109.2,133.07Z"/>
      <g>
        <path class="cls-1" d="M215.14,68.47c-.17-.65-.47-1.19-.86-1.66h0c-.44-.52-.99-.94-1.59-1.32-2.7-2-6.34-3.71-9.85-5.07h.01c-.11-.05-.22-.08-.34-.12-2.03-.78-4.01-1.44-5.71-1.97-1.62-.55-3.28-1.01-4.95-1.4-.17-.05-.28-.07-.28-.07-2.28-.5-4.59-.89-6.9-1.21-7.11-1.18-14.45-1.32-21.59-.4-6.19.49-12.34,1.87-18.22,3.91-7.9,2.52-15.3,6.45-22.16,11.09-1.49-2.92-2.43-6.32-4.36-8.99-1.33-1.84-4.3-1.46-4.93.72v.04c-1.1,4.55-1.61,9.2-2.74,13.72-.45,1.95.04,4.02,1.25,5.62,7.25,9.76,12.87,20.75,16.37,32.39,3.31,11.32,4.59,23.09,6.56,34.69.18,2.54.61,5.06,1.12,7.55.96,6.76,1.71,13.56,3.01,20.27,3.13-6.26,3.95-13.46,6.11-20.12,1.79-6.16,5.68-11.51,10.48-15.71,4.68-3.85,10.24-6.35,15.51-9.27,4.33-1.78,8.6-3.9,12.79-6.04,2.12-1.15,4.15-2.48,6.21-3.77,4.6-3.1,8.71-6.88,12.41-11.03,9.68-11.42,15.44-26.87,12.65-41.88ZM159.4,126.93c-.28.57-1.03.74-1.55.37-1-.72-2.16-1.07-2.74-1.22h-.02c-.22-.06-.36-.08-.36-.08l.02.02c-1.81-.33-3.67.38-5.2,1.59-.03.02-.06.06-.1.08-.17.15-.33.29-.51.44-1.57,1.55-2.34,3.56-2.67,4.62-.02.08-.04.14-.06.21-.07.27-.13.46-.13.51h0c-1.13,4.56-1.58,9.28-2.42,13.89-.18-1.24-.34-2.47-.51-3.68-1.48-8.77-3.85-18.41.28-26.83.22-.44.49-.84.76-1.24,1.81-2.7,4.85-4.44,8.04-4.4,1.29.02,2.58.54,3.42,1.53.39.47.6,1.01.32,1.74-.41.9-1.09,1.02-1.84.9h-.02c-.41-.07-.85-.21-1.26-.33-.08-.01-.16-.03-.24-.05-1.42-.31-2.53-.02-3.25.32-3.1,1.73-4.23,4.44-4.6,5.69,0,0-.01.03-.02.05-.01.08-.04.17-.07.25v.05c-.64,2.69-.88,5.48-.86,8.26,1.02-.04,1.24-1.19,1.78-1.85,2.44-4.17,8.09-6.06,12.56-4.27,1.01.4,1.69,1.43,1.54,2.5-.05.31-.14.62-.28.91Z"/>
        <path class="cls-1" d="M67.14,119.52c-1.32,4.91-2.86,9.83-3.23,14.93-.08,7.94,5.77,15.11,13.06,17.79,3.63,1.35,7.56,1.99,11.43,2.04.19.11.58.34.77.45-1,.39-1.99.78-2.96,1.23-1.52.74-3.05,1.48-4.54,2.28-.62.34-1.22.72-1.83,1.08-7.73,4.75-13.35,13.02-13.86,22.21-.95,6.69,1.37,13.89,6.74,18.17l-.02.13c4.33,3.2,9.68,5.3,15.13,4.78,2.33.04,4.61-.54,6.84-1.14,3.9-1.06,7.63-2.71,11.15-4.69,5.41-2.91,10.13-6.9,14.6-11.08,4.3-4.27,8.17-8.94,11.85-13.74-2.63-1.3-5.15-2.85-7.9-3.9-3.71-1.67-7.63-2.83-11.58-3.77-4.98-.91-10.05-1.02-15.09-.88l-.15.23c-2.23.14-4.44.53-6.6,1.07-3.5,1.01-6.87,2.49-9.89,4.53-1.26.83-2.31,2.01-3.75,2.57,1.23-1.76,2.13-3.72,3.5-5.4l.26-.02c3.33-3.83,8-6.25,12.9-7.41,2.7-.56,5.44-.86,8.18-.94,7.61-.03,15.29,1.67,21.96,5.41-5.49-6.5-11.91-12.22-18.66-17.39-3.14-2.31-6.36-4.52-9.76-6.44-2.22-1.24-4.49-2.4-6.78-3.52-3.85-1.61-7.74-3.3-11.81-4.22-1.72-.56-3.51-.9-5.27-1.27.1-.05.2-.08.3-.12,2.34-.9,18.57-6.24,39.45,9.46,1.85,1.44,3.64,2.95,5.43,4.46,1.98,2.07,4.05,4.05,5.97,6.2,2.96,3.37,5.35,7.21,8.19,10.67-1.17-5.16-2.68-10.25-4.29-15.29-2.01-6.33-4.34-12.55-7.02-18.62-1.04-2.22-2.06-4.47-3.17-6.66-2.04-3.88-4.05-7.79-6.52-11.42-2.59-4.31-5.56-8.37-8.78-12.23-4.23-5.23-9.08-9.91-14.05-14.43-.27-.04-.82-.13-1.09-.17.66-.13,1.32.01,1.9.38,2.82,1.32,5.7,2.52,8.5,3.89l-.02.1c3.71,2.07,7.04,4.74,10.18,7.58,1.82,1.76,3.6,3.58,5.26,5.5,4.48,5.4,8.41,11.23,11.7,17.44.7,1.17,1.16,2.6,2.37,3.37-2.04-7.68-4.67-15.23-8.05-22.44-3.1-6.55-6.7-12.91-11.2-18.62-2.38-3.12-5.05-6-7.88-8.72-1.48-1.3-2.94-2.61-4.5-3.82l-.25-.02c-3.56-3.05-7.67-5.4-11.88-7.44-5.24-2.45-10.95-4.64-16.84-4.18-2.3.65-2.77,3.34-2.25,5.38,2.32,10.84,6.27,21.39,7.04,32.52.6,8.16-.65,16.39-3.23,24.12Z"/>
        <path class="cls-1" d="M245.96,202.42c-1.13,2.92-4.54,3.94-7.13,5.21,1.76,2.1,4.42,4.41,3.11,7.48-2.5,1.67-5.87,3.09-6.36,6.44-.66,4.87,1.41,9.73.59,14.61-.73,3.72-4.48,5.92-8,6.4v.06c-2.49.47-5.04.71-7.54.18-3.52-.04-6.92-1.02-10.34-1.63-3.05-.59-6.16-1.06-9.09-2.15l-.73-.13c-2.27-.53-4.58-.93-6.92-.93-3.83.13-7.49,1.41-10.77,3.33-3.87,2.91-7.35,6.29-10.57,9.88-7.55,8.92-12.56,19.93-14.41,31.46-.23,1.61-.4,3.24-.48,4.86-8.73.31-17.61-.24-26.55-1.7-14.37-2.35-27.84-6.88-40.14-13.21,7.13-8.34,14.29-16.66,21.55-24.91,5.84-6.72,11.92-13.21,18.41-19.27,7.19-6.73,14.81-13.23,20.12-21.62,3.44-5.01,5.46-10.77,7.25-16.52.8-4.54,2.02-8.99,2.94-13.5,1.26-7,2.88-14.12,6.57-20.28,4.04-6.58,10.46-11.28,17.21-14.81,5.39-2.78,10.65-5.81,15.5-9.43,3.12-2.44,5.9-5.25,8.58-8.13l.02-.18c9.59-11.55,14.75-26.97,13.1-41.99-.38-3.96-1.53-7.78-2.53-11.61,4.69,3.25,8.48,7.57,12.04,11.98.61.88,1.2,1.77,1.78,2.66,6.17,9.63,9.21,21.28,8.31,32.7-.38,6.26-2.16,12.27-3.92,18.27,0,0-.62,2.08-1.07,3.67-.29,1.03-.57,2.07-.84,3.1-1.04,4.98-.41,10.18,1.17,14.97,1.05,2.46,2.23,4.88,3.68,7.14,1.74,2.48,3.52,4.96,5.74,7.06,2.3,2.58,5.69,4.64,6.15,8.36-1.42,4.19-5.66,6.11-8.88,8.68-1.96,1.48-2.82,4.15-2.12,6.5.47,3.03,4.96,3.61,4.56,7.02Z"/>
        <path class="cls-1" d="M102.12,245.7c3.55-3.45,7.25-6.74,10.9-10.11,1.68-1.46,3.28-3,4.93-4.49,2.87-2.7,5.71-5.44,8.4-8.31,5.12-5.44,9.14-11.86,12.05-18.73,3.22-8.18,5.1-17.3,3.14-26.01-.86,5.09-2.17,10.13-4.32,14.83-.94,1.96-4.37,8.6-10.8,15.97-1.04,1.14-2.12,2.25-3.25,3.31-3.02,2.88-6.33,5.45-9.7,7.92-1.47,1.07-3,2.09-4.46,3.19-4.7,2.99-9.41,6.02-13.83,9.41-4.13,3.02-8.02,6.43-11.31,10.35-6.38,6.74-10.54,15.55-11.83,24.72,4.24,2.28,8.6,4.33,13.06,6.14,1.04-6.51,4.17-12.6,7.96-17.97,2.71-3.65,5.75-7.07,9.04-10.22Z"/>
        <path class="cls-1" d="M240.59,135.16c3.27-2.73,6.18-6.26,6.93-10.57-.49,1.58-1.01,3.18-2.04,4.51-2.55,3.4-6.21,6.12-10.42,6.97,0,0-.17,2.68.16,5.54,0-.01,0-.03.01-.04.24-1.38,1.33-2.4,2.49-3.06,5.16-3.06,10.44-6.26,14.29-10.96-3.26,3.29-7.44,5.38-11.43,7.62Z"/>
      </g>
    </g>
  </g>
</svg>