<?xml version="1.0" encoding="UTF-8"?>
<svg id="Layer_2" data-name="Layer 2" xmlns="http://www.w3.org/2000/svg" viewBox="0 0 1042.32 295.35">
  <defs>
    <style>
      .cls-1 {
        fill: #343454;
      }
    </style>
  </defs>
  <g id="Layer_1-2" data-name="Layer 1">
    <g>
      <g>
        <path class="cls-1" d="M376.04,106.69c0-19.68,0-23.21-.25-27.25-.25-4.29-1.26-6.31-5.42-7.19-.88-.25-2.52-.25-3.66-.38-.88-.13-1.64-.25-1.64-.76,0-.76.63-1.01,2.02-1.01,2.9,0,6.31,0,14.25.38.88,0,25.99,0,28.89-.13,2.78-.13,5.05-.38,5.8-.76.76-.38,1.01-.5,1.39-.5s.5.5.5,1.14c0,.88-.76,2.4-1.01,5.93-.13,1.89-.25,4.29-.5,7.57-.13,1.26-.5,2.14-1.01,2.14-.76,0-1.01-.63-1.01-1.64,0-1.64-.25-3.15-.63-4.16-.88-2.9-3.53-4.16-9.08-4.67-2.14-.25-15.89-.38-17.28-.38-.5,0-.76.38-.76,1.26v34.82c0,.88.13,1.26.76,1.26,1.64,0,17.16,0,20.06-.25,3.41-.25,5.05-.63,6.31-2.14.63-.76,1.01-1.26,1.51-1.26.38,0,.63.25.63,1.01s-.63,2.9-1.01,7.06c-.38,3.91-.38,6.81-.5,8.58-.13,1.26-.38,1.89-.88,1.89-.76,0-.88-1.01-.88-2.02,0-1.14-.13-2.4-.5-3.53-.5-1.89-2.02-3.66-6.56-4.16-3.41-.38-15.89-.63-18.04-.63-.63,0-.88.38-.88.88v11.1c0,4.29-.13,18.92,0,21.57.25,5.17,1.01,7.95,4.16,9.21,2.14.88,5.55,1.13,10.47,1.13,3.78,0,7.95-.13,11.35-1.13,4.04-1.26,5.42-3.91,6.43-9.33.25-1.39.5-1.89,1.14-1.89.76,0,.76,1.01.76,1.89,0,1.01-1.01,9.59-1.64,12.24-.88,3.28-1.89,3.28-6.81,3.28-9.33,0-13.5-.25-18.42-.38-5.05-.13-10.85-.38-15.77-.38-3.03,0-6.05.5-9.33.38-1.39,0-2.02-.25-2.02-1.01,0-.38.63-.63,1.39-.76,1.26-.13,2.02-.13,2.9-.38,2.65-.63,4.29-2.4,4.54-11.86.13-4.92.25-11.35.25-22.58v-22.2Z"/>
        <path class="cls-1" d="M451.22,163.83c-1.77-.88-1.89-1.39-1.89-4.79,0-6.31.5-11.35.63-13.37.13-1.39.38-2.02,1.01-2.02.76,0,.88.38.88,1.39,0,1.13,0,2.9.38,4.67,1.89,9.33,10.22,12.87,18.67,12.87,12.11,0,18.04-8.7,18.04-16.78,0-8.7-3.66-13.75-14.51-22.71l-5.68-4.67c-13.37-10.97-16.4-18.8-16.4-27.37,0-13.5,10.09-22.71,26.11-22.71,4.92,0,8.58.5,11.73,1.26,2.4.5,3.41.63,4.42.63s1.26.25,1.26.88-.5,4.79-.5,13.37c0,2.02-.25,2.9-.88,2.9-.76,0-.88-.63-1.01-1.64-.13-1.51-.88-4.92-1.64-6.31-.76-1.39-4.16-6.69-15.77-6.69-8.7,0-15.52,5.42-15.52,14.63,0,7.19,3.28,11.73,15.39,21.19l3.53,2.78c14.89,11.73,18.42,19.55,18.42,29.64,0,5.17-2.02,14.76-10.72,20.94-5.42,3.78-12.24,5.3-19.05,5.3-5.93,0-11.73-.88-16.9-3.41Z"/>
        <path class="cls-1" d="M563.11,128.89c0,12.11,0,22.08.63,27.37.38,3.66,1.14,6.43,4.92,6.94,1.77.25,4.54.5,5.68.5.76,0,1.01.38,1.01.76,0,.63-.63,1.01-2.02,1.01-6.94,0-14.88-.38-15.52-.38s-8.58.38-12.36.38c-1.39,0-2.02-.25-2.02-1.01,0-.38.25-.76,1.01-.76,1.14,0,2.65-.25,3.78-.5,2.52-.5,3.15-3.28,3.66-6.94.63-5.3.63-15.26.63-27.37v-53.36c-6.18.13-12.49.13-18.67.25-7.82.13-10.85,1.01-12.87,4.04-1.39,2.14-1.77,3.03-2.14,3.91-.38,1.01-.76,1.26-1.26,1.26-.38,0-.63-.38-.63-1.13,0-1.26,2.52-12.11,2.77-13.12.25-.76.76-2.4,1.26-2.4.88,0,2.14,1.26,5.55,1.51,3.66.38,8.45.63,9.97.63h47.3c4.04,0,6.94-.25,8.96-.63,1.89-.25,3.03-.63,3.53-.63.63,0,.63.76.63,1.51,0,3.78-.38,12.49-.38,13.88,0,1.13-.38,1.64-.88,1.64-.63,0-.88-.38-1.01-2.14,0-.5-.13-.88-.13-1.39-.38-3.78-3.41-6.69-15.52-6.94-5.3-.13-10.6-.13-15.89-.25v53.36Z"/>
        <path class="cls-1" d="M629.71,106.69c0-19.68,0-23.21-.25-27.25-.25-4.29-1.26-6.31-5.42-7.19-.88-.25-2.52-.25-3.66-.38-.88-.13-1.64-.25-1.64-.76,0-.76.63-1.01,2.02-1.01,2.9,0,6.31,0,14.25.38.88,0,25.99,0,28.89-.13,2.78-.13,5.05-.38,5.8-.76.76-.38,1.01-.5,1.39-.5s.5.5.5,1.14c0,.88-.76,2.4-1.01,5.93-.13,1.89-.25,4.29-.5,7.57-.13,1.26-.5,2.14-1.01,2.14-.76,0-1.01-.63-1.01-1.64,0-1.64-.25-3.15-.63-4.16-.88-2.9-3.53-4.16-9.08-4.67-2.14-.25-15.89-.38-17.28-.38-.5,0-.76.38-.76,1.26v34.82c0,.88.13,1.26.76,1.26,1.64,0,17.16,0,20.06-.25,3.41-.25,5.05-.63,6.31-2.14.63-.76,1.01-1.26,1.51-1.26.38,0,.63.25.63,1.01s-.63,2.9-1.01,7.06c-.38,3.91-.38,6.81-.5,8.58-.13,1.26-.38,1.89-.88,1.89-.76,0-.88-1.01-.88-2.02,0-1.14-.13-2.4-.5-3.53-.5-1.89-2.02-3.66-6.56-4.16-3.41-.38-15.89-.63-18.04-.63-.63,0-.88.38-.88.88v11.1c0,4.29-.13,18.92,0,21.57.25,5.17,1.01,7.95,4.16,9.21,2.14.88,5.55,1.13,10.47,1.13,3.78,0,7.95-.13,11.35-1.13,4.04-1.26,5.42-3.91,6.43-9.33.25-1.39.5-1.89,1.14-1.89.76,0,.76,1.01.76,1.89,0,1.01-1.01,9.59-1.64,12.24-.88,3.28-1.89,3.28-6.81,3.28-9.33,0-13.5-.25-18.42-.38-5.05-.13-10.85-.38-15.77-.38-3.03,0-6.05.5-9.33.38-1.39,0-2.02-.25-2.02-1.01,0-.38.63-.63,1.39-.76,1.26-.13,2.02-.13,2.9-.38,2.65-.63,4.29-2.4,4.54-11.86.13-4.92.25-11.35.25-22.58v-22.2Z"/>
        <path class="cls-1" d="M739.83,128.89c0,12.11,0,22.08.63,27.37.38,3.66,1.14,6.43,4.92,6.94,1.77.25,4.54.5,5.68.5.76,0,1.01.38,1.01.76,0,.63-.63,1.01-2.02,1.01-6.94,0-14.88-.38-15.52-.38s-8.58.38-12.36.38c-1.39,0-2.02-.25-2.02-1.01,0-.38.25-.76,1.01-.76,1.14,0,2.65-.25,3.78-.5,2.52-.5,3.15-3.28,3.66-6.94.63-5.3.63-15.26.63-27.37v-53.36c-6.18.13-12.49.13-18.67.25-7.82.13-10.85,1.01-12.87,4.04-1.39,2.14-1.77,3.03-2.14,3.91-.38,1.01-.76,1.26-1.26,1.26-.38,0-.63-.38-.63-1.13,0-1.26,2.52-12.11,2.77-13.12.25-.76.76-2.4,1.26-2.4.88,0,2.14,1.26,5.55,1.51,3.66.38,8.45.63,9.97.63h47.3c4.04,0,6.94-.25,8.96-.63,1.89-.25,3.03-.63,3.53-.63.63,0,.63.76.63,1.51,0,3.78-.38,12.49-.38,13.88,0,1.13-.38,1.64-.88,1.64-.63,0-.88-.38-1.01-2.14,0-.5-.13-.88-.13-1.39-.38-3.78-3.41-6.69-15.52-6.94-5.3-.13-10.6-.13-15.89-.25v53.36Z"/>
        <path class="cls-1" d="M806.44,106.69c0-19.68,0-23.21-.25-27.25-.25-4.29-1.51-6.43-4.29-7.06-1.39-.38-3.03-.5-3.91-.5-.5,0-1.01-.25-1.01-.76,0-.76.63-1.01,2.02-1.01,4.16,0,12.11.38,12.74.38s8.58-.38,12.36-.38c1.39,0,2.02.25,2.02,1.01,0,.5-.5.76-1.01.76-.88,0-1.64.13-3.15.38-3.41.63-4.42,2.78-4.67,7.19-.25,4.04-.25,7.57-.25,27.25v22.2c0,12.11,0,22.08.63,27.37.38,3.66,1.14,6.43,4.92,6.94,1.77.25,4.42.5,5.17.5,1.14,0,1.51.38,1.51.76,0,.63-.5,1.01-1.89,1.01-6.94,0-15.01-.38-15.64-.38s-8.58.38-12.36.38c-1.39,0-2.02-.25-2.02-1.01,0-.38.25-.76,1.39-.76.76,0,2.14-.13,3.28-.38,2.52-.5,3.28-3.41,3.78-7.06.63-5.3.63-15.26.63-27.37v-22.2Z"/>
        <path class="cls-1" d="M878.34,114.76c3.91-3.78,21.07-21.82,28.76-29.77,7.57-7.82,8.07-9.08,8.07-10.6,0-1.01-.63-2.02-1.64-2.4-.88-.38-1.13-.63-1.13-1.13s.76-.76,1.89-.76c3.66,0,3.28.38,7.57.38,3.91,0,11.35-.38,13.37-.38,1.77,0,2.14.38,2.14.88s-.25.76-1.39.88c-2.4.25-4.67.76-6.43,1.51-3.15,1.26-5.55,2.78-13.12,10.09-11.1,10.72-25.48,24.98-28.76,28.63,7.95,8.7,30.91,32.04,36.83,37.59,10.34,9.71,14.76,12.49,20.81,13.62,1.13.25,2.4.38,3.66.38,1.01,0,1.77.25,1.77.88s-.5.88-1.89.88h-9.33c-10.97,0-13.88-1.39-19.8-6.06-7.57-5.93-30.28-30.27-41.38-43.52v12.99c0,12.11,0,22.08.63,27.37.38,3.66,1.14,6.43,4.92,6.94,1.77.25,4.29.5,5.05.5,1.13,0,1.51.5,1.51.88,0,.63-.5.88-1.89.88-6.94,0-14.88-.38-15.52-.38s-8.07.38-11.86.38c-1.39,0-2.02-.13-2.02-.88,0-.38.25-.88,1.39-.88.76,0,2.14-.13,3.28-.38,2.52-.5,3.28-3.41,3.78-7.06.63-5.3.63-15.26.63-27.37v-22.2c0-19.68,0-23.21-.25-27.25-.25-4.29-1.51-6.43-4.29-7.06-1.39-.38-3.66-.5-4.54-.5-1.01,0-1.39-.25-1.39-.76,0-.76.63-1.01,2.02-1.01,4.16,0,12.61.38,13.25.38s8.58-.38,12.36-.38c1.39,0,2.02.25,2.02.88,0,.5-.25.76-1.39.88-1.39.13-1.51.13-2.78.25-3.41.38-4.42,2.9-4.67,7.32-.25,4.04-.25,7.57-.25,27.25v8.07Z"/>
        <path class="cls-1" d="M977.86,128.26c-.63,0-1.01.38-1.26,1.01l-7.57,22.33c-1.13,3.15-1.77,6.18-1.77,8.45,0,2.52,2.4,3.66,4.54,3.66h1.14c1.26,0,1.64.25,1.64.76,0,.76-1.14,1.01-2.27,1.01-3.03,0-8.07-.38-9.46-.38s-8.33.38-14.25.38c-1.64,0-2.4-.25-2.4-1.01,0-.5.63-.76,1.77-.76.88,0,2.02-.13,3.03-.25,5.8-.76,8.33-5.55,10.6-11.86l28.63-78.34c1.51-4.16,2.02-4.92,2.78-4.92s1.26.63,2.78,4.54c1.89,4.79,21.7,56.89,29.39,76.06,4.54,11.23,8.2,13.25,10.85,14,1.89.63,3.91.76,4.92.76.76,0,1.39.13,1.39.76,0,.76-1.13,1.01-2.52,1.01-1.89,0-11.1,0-19.8-.25-2.4-.13-3.78-.13-3.78-.88,0-.5.38-.76.88-.88.76-.25,1.51-1.39.76-3.41l-11.73-31.03c-.25-.5-.5-.76-1.14-.76h-27.12ZM1003.34,123.72c.63,0,.63-.38.5-.88l-11.98-34.06c-.63-1.89-1.26-1.89-1.89,0l-11.1,34.06c-.25.63,0,.88.38.88h24.09Z"/>
      </g>
      <g>
        <path class="cls-1" d="M461.89,201.87c0,7.88-5.68,12.6-15.12,12.6h-10.72v12.28h-2.73v-37.52h13.45c9.43,0,15.12,4.72,15.12,12.65ZM459.1,201.87c0-6.49-4.29-10.18-12.33-10.18h-10.72v20.32h10.72c8.04,0,12.33-3.7,12.33-10.13Z"/>
        <path class="cls-1" d="M507.89,226.74l-8.95-12.54c-1.18.16-2.36.27-3.65.27h-10.72v12.28h-2.73v-37.52h13.45c9.43,0,15.12,4.72,15.12,12.65,0,5.95-3.22,10.08-8.79,11.74l9.38,13.13h-3.11ZM495.29,212.06c8.04,0,12.33-3.75,12.33-10.18s-4.29-10.18-12.33-10.18h-10.72v20.37h10.72Z"/>
        <path class="cls-1" d="M527.56,207.98c0-10.88,8.31-19.03,19.51-19.03s19.51,8.09,19.51,19.03-8.36,19.03-19.51,19.03-19.51-8.15-19.51-19.03ZM563.8,207.98c0-9.49-7.18-16.51-16.72-16.51s-16.78,7.02-16.78,16.51,7.18,16.51,16.78,16.51,16.72-7.02,16.72-16.51Z"/>
        <path class="cls-1" d="M589.53,191.69v16.03h19.99v2.47h-19.99v16.56h-2.73v-37.52h25.09v2.47h-22.35Z"/>
        <path class="cls-1" d="M657.24,224.28v2.47h-25.89v-37.52h25.09v2.47h-22.35v14.79h19.99v2.41h-19.99v15.38h23.16Z"/>
        <path class="cls-1" d="M674.13,221.92l1.23-2.04c2.57,2.68,7.34,4.72,12.38,4.72,7.5,0,10.83-3.27,10.83-7.34,0-11.26-23.42-4.5-23.42-18.33,0-5.31,4.07-9.97,13.29-9.97,4.13,0,8.42,1.29,11.31,3.38l-1.02,2.2c-3.11-2.14-6.91-3.16-10.29-3.16-7.29,0-10.56,3.38-10.56,7.5,0,11.26,23.42,4.61,23.42,18.23,0,5.31-4.23,9.92-13.51,9.92-5.57,0-10.94-2.09-13.67-5.09Z"/>
        <path class="cls-1" d="M717.5,221.92l1.23-2.04c2.57,2.68,7.34,4.72,12.38,4.72,7.5,0,10.83-3.27,10.83-7.34,0-11.26-23.43-4.5-23.43-18.33,0-5.31,4.07-9.97,13.29-9.97,4.13,0,8.42,1.29,11.31,3.38l-1.02,2.2c-3.11-2.14-6.91-3.16-10.29-3.16-7.29,0-10.56,3.38-10.56,7.5,0,11.26,23.42,4.61,23.42,18.23,0,5.31-4.23,9.92-13.51,9.92-5.57,0-10.94-2.09-13.67-5.09Z"/>
        <path class="cls-1" d="M764.67,189.22h2.73v37.52h-2.73v-37.52Z"/>
        <path class="cls-1" d="M787.62,207.98c0-10.88,8.31-19.03,19.51-19.03s19.51,8.09,19.51,19.03-8.36,19.03-19.51,19.03-19.51-8.15-19.51-19.03ZM823.85,207.98c0-9.49-7.18-16.51-16.72-16.51s-16.78,7.02-16.78,16.51,7.18,16.51,16.78,16.51,16.72-7.02,16.72-16.51Z"/>
        <path class="cls-1" d="M877.41,189.22v37.52h-2.25l-25.57-32.59v32.59h-2.73v-37.52h2.3l25.52,32.59v-32.59h2.73Z"/>
        <path class="cls-1" d="M924.42,216.18h-21.76l-4.77,10.56h-2.95l17.26-37.52h2.73l17.26,37.52h-2.95l-4.82-10.56ZM923.4,213.88l-9.86-21.66-9.81,21.66h19.67Z"/>
        <path class="cls-1" d="M949.73,189.22h2.73v35.06h21.6v2.47h-24.34v-37.52Z"/>
      </g>
    </g>
    <g>
      <path class="cls-1" d="M147.68,0C66.25,0,0,66.24,0,147.68c0,46.69,21.78,88.39,55.71,115.45,3.97,3.19,8.11,6.16,12.41,8.91,22.97,14.75,50.28,23.31,79.56,23.31,2.08,0,4.14-.04,6.2-.13,7.78-.32,15.4-1.25,22.83-2.74,67.58-13.52,118.65-73.3,118.65-144.8C295.36,66.24,229.11,0,147.68,0ZM174.16,280.75c-8.57,1.71-17.42,2.6-26.48,2.6-14.56,0-28.59-2.3-41.74-6.56-12.88-4.18-24.91-10.22-35.79-17.82-4.03-2.82-7.9-5.85-11.6-9.08-28.51-24.89-46.55-61.48-46.55-102.21C12,72.86,72.86,12,147.68,12s135.68,60.86,135.68,135.68c0,65.75-47.02,120.73-109.2,133.07Z"/>
      <g>
        <path class="cls-1" d="M215.14,68.47c-.17-.65-.47-1.19-.86-1.66h0c-.44-.52-.99-.94-1.59-1.32-2.7-2-6.34-3.71-9.85-5.07h.01c-.11-.05-.22-.08-.34-.12-2.03-.78-4.01-1.44-5.71-1.97-1.62-.55-3.28-1.01-4.95-1.4-.17-.05-.28-.07-.28-.07-2.28-.5-4.59-.89-6.9-1.21-7.11-1.18-14.45-1.32-21.59-.4-6.19.49-12.34,1.87-18.22,3.91-7.9,2.52-15.3,6.45-22.16,11.09-1.49-2.92-2.43-6.32-4.36-8.99-1.33-1.84-4.3-1.46-4.93.72v.04c-1.1,4.55-1.61,9.2-2.74,13.72-.45,1.95.04,4.02,1.25,5.62,7.25,9.76,12.87,20.75,16.37,32.39,3.31,11.32,4.59,23.09,6.56,34.69.18,2.54.61,5.06,1.12,7.55.96,6.76,1.71,13.56,3.01,20.27,3.13-6.26,3.95-13.46,6.11-20.12,1.79-6.16,5.68-11.51,10.48-15.71,4.68-3.85,10.24-6.35,15.51-9.27,4.33-1.78,8.6-3.9,12.79-6.04,2.12-1.15,4.15-2.48,6.21-3.77,4.6-3.1,8.71-6.88,12.41-11.03,9.68-11.42,15.44-26.87,12.65-41.88ZM159.4,126.93c-.28.57-1.03.74-1.55.37-1-.72-2.16-1.07-2.74-1.22h-.02c-.22-.06-.36-.08-.36-.08l.02.02c-1.81-.33-3.67.38-5.2,1.59-.03.02-.06.06-.1.08-.17.15-.33.29-.51.44-1.57,1.55-2.34,3.56-2.67,4.62-.02.08-.04.14-.06.21-.07.27-.13.46-.13.51h0c-1.13,4.56-1.58,9.28-2.42,13.89-.18-1.24-.34-2.47-.51-3.68-1.48-8.77-3.85-18.41.28-26.83.22-.44.49-.84.76-1.24,1.81-2.7,4.85-4.44,8.04-4.4,1.29.02,2.58.54,3.42,1.53.39.47.6,1.01.32,1.74-.41.9-1.09,1.02-1.84.9h-.02c-.41-.07-.85-.21-1.26-.33-.08-.01-.16-.03-.24-.05-1.42-.31-2.53-.02-3.25.32-3.1,1.73-4.23,4.44-4.6,5.69,0,0-.01.03-.02.05-.01.08-.04.17-.07.25v.05c-.64,2.69-.88,5.48-.86,8.26,1.02-.04,1.24-1.19,1.78-1.85,2.44-4.17,8.09-6.06,12.56-4.27,1.01.4,1.69,1.43,1.54,2.5-.05.31-.14.62-.28.91Z"/>
        <path class="cls-1" d="M67.14,119.52c-1.32,4.91-2.86,9.83-3.23,14.93-.08,7.94,5.77,15.11,13.06,17.79,3.63,1.35,7.56,1.99,11.43,2.04.19.11.58.34.77.45-1,.39-1.99.78-2.96,1.23-1.52.74-3.05,1.48-4.54,2.28-.62.34-1.22.72-1.83,1.08-7.73,4.75-13.35,13.02-13.86,22.21-.95,6.69,1.37,13.89,6.74,18.17l-.02.13c4.33,3.2,9.68,5.3,15.13,4.78,2.33.04,4.61-.54,6.84-1.14,3.9-1.06,7.63-2.71,11.15-4.69,5.41-2.91,10.13-6.9,14.6-11.08,4.3-4.27,8.17-8.94,11.85-13.74-2.63-1.3-5.15-2.85-7.9-3.9-3.71-1.67-7.63-2.83-11.58-3.77-4.98-.91-10.05-1.02-15.09-.88l-.15.23c-2.23.14-4.44.53-6.6,1.07-3.5,1.01-6.87,2.49-9.89,4.53-1.26.83-2.31,2.01-3.75,2.57,1.23-1.76,2.13-3.72,3.5-5.4l.26-.02c3.33-3.83,8-6.25,12.9-7.41,2.7-.56,5.44-.86,8.18-.94,7.61-.03,15.29,1.67,21.96,5.41-5.49-6.5-11.91-12.22-18.66-17.39-3.14-2.31-6.36-4.52-9.76-6.44-2.22-1.24-4.49-2.4-6.78-3.52-3.85-1.61-7.74-3.3-11.81-4.22-1.72-.56-3.51-.9-5.27-1.27.1-.05.2-.08.3-.12,2.34-.9,18.57-6.24,39.45,9.46,1.85,1.44,3.64,2.95,5.43,4.46,1.98,2.07,4.05,4.05,5.97,6.2,2.96,3.37,5.35,7.21,8.19,10.67-1.17-5.16-2.68-10.25-4.29-15.29-2.01-6.33-4.34-12.55-7.02-18.62-1.04-2.22-2.06-4.47-3.17-6.66-2.04-3.88-4.05-7.79-6.52-11.42-2.59-4.31-5.56-8.37-8.78-12.23-4.23-5.23-9.08-9.91-14.05-14.43-.27-.04-.82-.13-1.09-.17.66-.13,1.32.01,1.9.38,2.82,1.32,5.7,2.52,8.5,3.89l-.02.1c3.71,2.07,7.04,4.74,10.18,7.58,1.82,1.76,3.6,3.58,5.26,5.5,4.48,5.4,8.41,11.23,11.7,17.44.7,1.17,1.16,2.6,2.37,3.37-2.04-7.68-4.67-15.23-8.05-22.44-3.1-6.55-6.7-12.91-11.2-18.62-2.38-3.12-5.05-6-7.88-8.72-1.48-1.3-2.94-2.61-4.5-3.82l-.25-.02c-3.56-3.05-7.67-5.4-11.88-7.44-5.24-2.45-10.95-4.64-16.84-4.18-2.3.65-2.77,3.34-2.25,5.38,2.32,10.84,6.27,21.39,7.04,32.52.6,8.16-.65,16.39-3.23,24.12Z"/>
        <path class="cls-1" d="M245.96,202.42c-1.13,2.92-4.54,3.94-7.13,5.21,1.76,2.1,4.42,4.41,3.11,7.48-2.5,1.67-5.87,3.09-6.36,6.44-.66,4.87,1.41,9.73.59,14.61-.73,3.72-4.48,5.92-8,6.4v.06c-2.49.47-5.04.71-7.54.18-3.52-.04-6.92-1.02-10.34-1.63-3.05-.59-6.16-1.06-9.09-2.15l-.73-.13c-2.27-.53-4.58-.93-6.92-.93-3.83.13-7.49,1.41-10.77,3.33-3.87,2.91-7.35,6.29-10.57,9.88-7.55,8.92-12.56,19.93-14.41,31.46-.23,1.61-.4,3.24-.48,4.86-8.73.31-17.61-.24-26.55-1.7-14.37-2.35-27.84-6.88-40.14-13.21,7.13-8.34,14.29-16.66,21.55-24.91,5.84-6.72,11.92-13.21,18.41-19.27,7.19-6.73,14.81-13.23,20.12-21.62,3.44-5.01,5.46-10.77,7.25-16.52.8-4.54,2.02-8.99,2.94-13.5,1.26-7,2.88-14.12,6.57-20.28,4.04-6.58,10.46-11.28,17.21-14.81,5.39-2.78,10.65-5.81,15.5-9.43,3.12-2.44,5.9-5.25,8.58-8.13l.02-.18c9.59-11.55,14.75-26.97,13.1-41.99-.38-3.96-1.53-7.78-2.53-11.61,4.69,3.25,8.48,7.57,12.04,11.98.61.88,1.2,1.77,1.78,2.66,6.17,9.63,9.21,21.28,8.31,32.7-.38,6.26-2.16,12.27-3.92,18.27,0,0-.62,2.08-1.07,3.67-.29,1.03-.57,2.07-.84,3.1-1.04,4.98-.41,10.18,1.17,14.97,1.05,2.46,2.23,4.88,3.68,7.14,1.74,2.48,3.52,4.96,5.74,7.06,2.3,2.58,5.69,4.64,6.15,8.36-1.42,4.19-5.66,6.11-8.88,8.68-1.96,1.48-2.82,4.15-2.12,6.5.47,3.03,4.96,3.61,4.56,7.02Z"/>
        <path class="cls-1" d="M102.12,245.7c3.55-3.45,7.25-6.74,10.9-10.11,1.68-1.46,3.28-3,4.93-4.49,2.87-2.7,5.71-5.44,8.4-8.31,5.12-5.44,9.14-11.86,12.05-18.73,3.22-8.18,5.1-17.3,3.14-26.01-.86,5.09-2.17,10.13-4.32,14.83-.94,1.96-4.37,8.6-10.8,15.97-1.04,1.14-2.12,2.25-3.25,3.31-3.02,2.88-6.33,5.45-9.7,7.92-1.47,1.07-3,2.09-4.46,3.19-4.7,2.99-9.41,6.02-13.83,9.41-4.13,3.02-8.02,6.43-11.31,10.35-6.38,6.74-10.54,15.55-11.83,24.72,4.24,2.28,8.6,4.33,13.06,6.14,1.04-6.51,4.17-12.6,7.96-17.97,2.71-3.65,5.75-7.07,9.04-10.22Z"/>
        <path class="cls-1" d="M240.59,135.16c3.27-2.73,6.18-6.26,6.93-10.57-.49,1.58-1.01,3.18-2.04,4.51-2.55,3.4-6.21,6.12-10.42,6.97,0,0-.17,2.68.16,5.54,0-.01,0-.03.01-.04.24-1.38,1.33-2.4,2.49-3.06,5.16-3.06,10.44-6.26,14.29-10.96-3.26,3.29-7.44,5.38-11.43,7.62Z"/>
      </g>
    </g>
  </g>
</svg>